<svg id="Layer_1" enable-background="new 0 0 256 256" height="512" viewBox="0 0 256 256" width="512" xmlns="http://www.w3.org/2000/svg"><g><g><g><g><g><g><path d="m73.917 248.041h108.166c5.523 0 10-4.477 10-10v-220.082c0-5.523-4.477-10-10-10h-108.166c-5.523 0-10 4.477-10 10v220.083c0 5.522 4.477 9.999 10 9.999z" fill="#58595b"/></g><g><path d="m186.193 8.849c.567 1.255.891 2.643.891 4.11v220.083c0 5.523-4.477 10-10 10h-108.167c-1.467 0-2.855-.323-4.11-.89 1.568 3.471 5.053 5.89 9.11 5.89h108.166c5.523 0 10-4.477 10-10v-220.083c0-4.057-2.419-7.541-5.89-9.11z" fill="#414042"/></g><g><path d="m110.369 21.461h35.263c1.305 0 2.373-1.068 2.373-2.373 0-1.305-1.068-2.373-2.373-2.373h-35.263c-1.305 0-2.373 1.068-2.373 2.373-.001 1.305 1.067 2.373 2.373 2.373z" fill="#939598"/></g><g><circle cx="98.501" cy="19.088" fill="#939598" r="2.605"/></g><g><path d="m114.708 236.881h26.585c2.2 0 4-1.8 4-4v-3.528c0-2.2-1.8-4-4-4h-26.585c-2.2 0-4 1.8-4 4v3.528c0 2.2 1.8 4 4 4z" fill="#939598"/></g><g><path d="m63.917 29.773h128.167v187.074h-128.167z" fill="#f1f2f2"/></g><g><path d="m182.083 29.773v172.074c0 2.761-2.239 5-5 5h-113.166v10h128.167v-187.074z" fill="#e6e7e8"/></g><g><path d="m187.083 29.773v177.074c0 2.761-2.239 5-5 5h-118.166v5h128.167v-187.074z" fill="#d1d3d4"/></g><g><path d="m69.917 102.333c-1.104 0-2-.896-2-2v-55c0-1.104.896-2 2-2s2 .896 2 2v55c0 1.105-.896 2-2 2zm0-63c-1.104 0-2-.896-2-2v-.56c0-1.104.896-2 2-2s2 .896 2 2v.56c0 1.105-.896 2-2 2z" fill="#fff"/></g></g></g></g></g><g><g><path d="m124.886 177.227c-9.7 0-17.563-7.863-17.563-17.563v-93.259c0-9.7 7.863-17.563 17.563-17.563h98.731c9.7 0 17.563 7.863 17.563 17.563v93.259c0 9.7-7.863 17.563-17.563 17.563h-65.126l-27.145 24.073c-1.29 1.144-3.327.228-3.327-1.496v-22.577z" fill="#893add"/></g></g><g><g><path d="m233.277 51.745c1.83 2.772 2.903 6.089 2.903 9.66v93.259c0 9.699-7.863 17.563-17.563 17.563h-65.126l-25.472 22.59v4.987c0 1.725 2.037 2.641 3.327 1.496l27.145-24.073h65.126c9.699 0 17.563-7.863 17.563-17.563v-93.259c0-6.129-3.144-11.518-7.903-14.66z" fill="#6c2bc1"/></g></g><g fill="#fff"><path d="m133.501 104h28.632c1.657 0 3-1.343 3-3v-28.632c0-1.657-1.343-3-3-3h-28.632c-1.657 0-3 1.343-3 3v28.632c0 1.657 1.343 3 3 3zm3-28.632h22.632v22.632h-22.632z"/><path d="m150.317 81.184h-5c-1.657 0-3 1.343-3 3v5c0 1.657 1.343 3 3 3h5c1.657 0 3-1.343 3-3v-5c0-1.657-1.342-3-3-3z"/><path d="m214.834 69.368h-21.999c-1.657 0-3 1.343-3 3v19h-2c-1.657 0-3 1.343-3 3v5c0 1.657 1.343 3 3 3h5c1.657 0 3-1.343 3-3v-2h18.999c1.657 0 3-1.343 3-3v-22c0-1.657-1.343-3-3-3zm-3 21.999h-15.999v-16h15.999z"/><path d="m163.892 120.311h-30.391c-1.657 0-3 1.343-3 3v30.391c0 1.657 1.343 3 3 3h30.391c1.657 0 3-1.343 3-3v-30.391c0-1.657-1.343-3-3-3zm-3 30.39h-8.391v-13c0-1.657-1.343-3-3-3h-13v-8.391h24.391z"/><path d="m214.834 122.95h-27.751c-1.657 0-3 1.343-3 3v27.751c0 1.657 1.343 3 3 3h27.751c1.657 0 3-1.343 3-3v-7.368c0-1.657-1.343-3-3-3s-3 1.343-3 3v4.368h-21.751v-21.751h21.751v7.05c0 1.657 1.343 3 3 3s3-1.343 3-3v-10.05c0-1.657-1.343-3-3-3z"/><path d="m174.168 77c1.657 0 3-1.343 3-3v-1.632c0-1.657-1.343-3-3-3s-3 1.343-3 3v1.632c0 1.657 1.343 3 3 3z"/><path d="m188.292 116.035c1.657 0 3-1.343 3-3s-1.343-3-3-3h-11.124v-25.851c0-1.657-1.343-3-3-3s-3 1.343-3 3v25.851h-37.667c-1.657 0-3 1.343-3 3s1.343 3 3 3h37.667v37.667c0 1.657 1.343 3 3 3s3-1.343 3-3v-37.667z"/><path d="m214.834 110.035h-16.834c-1.657 0-3 1.343-3 3s1.343 3 3 3h16.834c1.657 0 3-1.343 3-3s-1.343-3-3-3z"/></g></g></svg>